<?xml version="1.0" standalone="no"?>
<!DOCTYPE svg PUBLIC "-//W3C//DTD SVG 20010904//EN"
 "http://www.w3.org/TR/2001/REC-SVG-20010904/DTD/svg10.dtd">
<svg version="1.0" xmlns="http://www.w3.org/2000/svg"
 width="500.000000pt" height="500.000000pt" viewBox="0 0 500.000000 500.000000"
 preserveAspectRatio="xMidYMid meet">

<g transform="translate(0.000000,500.000000) scale(0.100000,-0.100000)"
fill="#000000" stroke="none">
<path d="M0 2500 l0 -2500 2500 0 2500 0 0 2500 0 2500 -2500 0 -2500 0 0
-2500z m2832 1598 c-23 -23 -14 -45 23 -52 41 -8 41 -9 25 -186 -5 -58 -15
-164 -20 -236 -7 -80 -18 -153 -30 -184 -13 -36 -17 -66 -14 -94 4 -23 1 -98
-6 -166 -22 -224 -25 -280 -17 -280 12 0 26 45 24 75 -2 24 2 27 30 30 18 1
30 -1 27 -6 -3 -5 4 -9 15 -9 11 0 24 -7 29 -17 14 -23 50 -13 178 49 60 30
138 67 174 82 258 113 332 144 463 197 81 32 150 59 153 59 4 0 4 -7 0 -15 -9
-26 12 -67 32 -61 13 4 24 -9 50 -64 17 -38 32 -75 32 -83 0 -8 11 -31 25 -51
27 -40 26 -86 -2 -86 -10 0 -13 -6 -8 -17 3 -10 9 -31 12 -47 3 -16 13 -31 22
-33 14 -3 64 -148 119 -336 4 -17 -1 -18 -42 -16 -27 2 -50 -2 -54 -8 -7 -11
-309 -77 -522 -114 -58 -10 -154 -27 -215 -38 -60 -11 -148 -27 -194 -35 -46
-9 -86 -18 -88 -20 -3 -2 7 -25 21 -50 14 -26 26 -55 26 -65 0 -15 25 -49 95
-127 5 -6 55 -63 110 -125 135 -153 164 -181 186 -176 19 5 29 -11 29 -49 0
-17 6 -24 20 -24 14 0 20 -7 20 -21 0 -23 54 -79 76 -79 8 0 14 -6 14 -13 0
-8 11 -24 25 -37 14 -13 25 -31 25 -41 0 -10 4 -20 9 -23 5 -4 28 -28 51 -56
l41 -49 -278 -184 c-153 -101 -294 -193 -314 -205 -46 -28 -119 -30 -142 -4
-8 9 -63 98 -122 197 -59 99 -116 192 -126 207 -11 14 -19 35 -19 46 0 11 -7
25 -15 32 -9 7 -13 21 -10 31 4 13 0 18 -16 21 -14 2 -34 25 -60 68 -59 98
-90 130 -128 130 -36 0 -36 -1 -13 46 13 28 14 38 5 41 -7 3 -13 11 -13 19 0
17 -12 18 -28 2 -10 -10 -14 -8 -18 8 -6 23 -40 48 -55 39 -5 -4 -19 -25 -30
-47 -12 -23 -36 -63 -55 -89 -19 -27 -34 -51 -34 -54 0 -11 -96 -163 -118
-188 -14 -15 -27 -34 -28 -43 -3 -18 -111 -200 -208 -349 -36 -55 -79 -124
-96 -152 -16 -29 -34 -53 -39 -53 -4 0 -23 11 -42 25 -19 13 -45 32 -59 42
-27 19 -159 121 -175 135 -6 6 -5 12 4 17 9 6 11 18 7 35 -5 19 -13 26 -31 26
-18 0 -25 5 -25 19 0 11 5 23 10 26 15 9 1 27 -16 21 -7 -3 -16 -1 -19 4 -9
14 -35 12 -35 -2 0 -7 16 -28 35 -47 31 -30 46 -61 29 -61 -7 0 -84 54 -109
77 -43 39 -141 109 -185 131 -91 45 -115 83 -65 102 15 6 30 8 35 5 5 -3 10 3
12 14 5 30 189 228 476 512 144 143 262 263 262 268 0 4 -11 14 -25 21 -25 13
-35 40 -15 40 6 0 10 4 10 9 0 5 -59 23 -131 40 -73 18 -147 38 -166 46 -20 8
-39 13 -43 10 -4 -3 -52 7 -106 21 -55 14 -129 27 -166 29 -38 1 -78 9 -90 17
-13 8 -45 23 -73 33 -27 10 -54 22 -59 27 -6 4 -18 8 -28 8 -10 0 -20 10 -24
24 -6 27 -40 36 -133 36 -38 0 -52 4 -49 13 3 6 20 56 39 109 19 54 40 98 47
98 6 0 12 6 12 14 0 8 8 13 18 12 12 -1 17 6 17 24 0 18 -5 25 -17 24 -27 -3
-21 25 7 36 28 11 29 13 14 38 -18 28 24 128 60 140 24 9 27 14 23 46 -3 22 0
36 7 36 6 0 8 -6 5 -14 -4 -11 0 -13 15 -9 25 6 26 16 5 34 -13 10 -19 10 -37
0 -18 -11 -20 -11 -9 0 6 7 12 23 12 35 0 11 5 36 11 54 11 30 14 32 46 27 40
-7 63 0 63 18 0 30 131 -21 425 -166 110 -54 273 -139 362 -189 90 -49 169
-90 176 -90 27 0 34 20 26 73 -26 160 -41 307 -45 427 -6 195 -13 249 -35 261
-24 12 -27 69 -4 69 16 0 20 12 8 24 -10 10 -11 96 -1 96 4 0 8 7 8 15 0 8 -5
15 -11 15 -6 0 -9 23 -8 58 1 33 -1 64 -6 71 -5 9 0 12 16 9 20 -2 24 1 24 22
0 18 -6 26 -22 28 -13 2 -23 7 -23 12 0 5 167 9 372 10 205 0 374 3 377 5 2 3
7 3 10 0 2 -3 -1 -11 -7 -17z"/>
<path d="M2310 4005 c0 -9 5 -15 11 -13 6 2 11 8 11 13 0 5 -5 11 -11 13 -6 2
-11 -4 -11 -13z"/>
<path d="M2735 3881 c-9 -16 3 -31 26 -31 14 0 19 6 17 17 -4 20 -33 29 -43
14z"/>
<path d="M2650 3690 c0 -5 5 -10 10 -10 6 0 10 5 10 10 0 6 -4 10 -10 10 -5 0
-10 -4 -10 -10z"/>
<path d="M2670 3620 c0 -5 5 -10 10 -10 6 0 10 5 10 10 0 6 -4 10 -10 10 -5 0
-10 -4 -10 -10z"/>
<path d="M1235 3290 c4 -6 11 -8 16 -5 14 9 11 15 -7 15 -8 0 -12 -5 -9 -10z"/>
<path d="M1300 3290 c0 -5 7 -10 16 -10 8 0 12 5 9 10 -3 6 -10 10 -16 10 -5
0 -9 -4 -9 -10z"/>
<path d="M1250 3235 c0 -9 5 -15 11 -13 6 2 11 8 11 13 0 5 -5 11 -11 13 -6 2
-11 -4 -11 -13z"/>
<path d="M1280 3206 c0 -2 7 -9 15 -16 12 -10 15 -10 15 4 0 9 -7 16 -15 16
-8 0 -15 -2 -15 -4z"/>
<path d="M3862 2883 c4 -22 43 -25 43 -3 0 8 -11 16 -23 18 -19 3 -23 0 -20
-15z"/>
<path d="M4010 2760 c0 -5 5 -10 10 -10 6 0 10 5 10 10 0 6 -4 10 -10 10 -5 0
-10 -4 -10 -10z"/>
<path d="M3605 2730 c-8 -14 3 -30 21 -30 8 0 14 9 14 20 0 21 -24 28 -35 10z"/>
<path d="M4065 2710 c-3 -5 -1 -10 4 -10 6 0 11 5 11 10 0 6 -2 10 -4 10 -3 0
-8 -4 -11 -10z"/>
<path d="M3727 2704 c-8 -8 1 -24 14 -24 5 0 9 7 9 15 0 15 -12 20 -23 9z"/>
<path d="M3660 2684 c0 -8 5 -12 10 -9 6 3 10 10 10 16 0 5 -4 9 -10 9 -5 0
-10 -7 -10 -16z"/>
<path d="M3115 2650 c-3 -5 -1 -10 4 -10 6 0 11 5 11 10 0 6 -2 10 -4 10 -3 0
-8 -4 -11 -10z"/>
<path d="M1760 2625 c0 -15 -10 -19 -42 -16 -26 3 -22 -14 8 -38 47 -37 69
-24 58 34 -6 34 -24 49 -24 20z"/>
<path d="M3800 2630 c0 -5 5 -10 10 -10 6 0 10 5 10 10 0 6 -4 10 -10 10 -5 0
-10 -4 -10 -10z"/>
<path d="M3097 2613 c-12 -11 -8 -23 8 -23 8 0 15 7 15 15 0 16 -12 20 -23 8z"/>
<path d="M3465 2591 c-3 -5 -1 -12 5 -16 12 -7 30 2 30 16 0 12 -27 12 -35 0z"/>
<path d="M3356 2535 c-3 -9 1 -18 10 -22 19 -7 28 2 21 22 -8 19 -23 19 -31 0z"/>
<path d="M1776 1923 c-11 -11 -6 -23 9 -23 8 0 15 4 15 9 0 13 -16 22 -24 14z"/>
<path d="M3155 1901 c-6 -11 9 -23 19 -14 9 9 7 23 -3 23 -6 0 -12 -4 -16 -9z"/>
<path d="M2967 1881 c-3 -12 4 -28 19 -42 28 -26 45 -18 21 9 -10 10 -17 24
-17 30 0 20 -18 22 -23 3z"/>
<path d="M3077 1764 c-14 -15 -6 -34 14 -34 14 0 19 5 17 17 -3 18 -20 27 -31
17z"/>
<path d="M2980 1730 c0 -5 7 -10 16 -10 8 0 12 5 9 10 -3 6 -10 10 -16 10 -5
0 -9 -4 -9 -10z"/>
<path d="M3040 1719 c0 -5 5 -7 10 -4 6 3 10 8 10 11 0 2 -4 4 -10 4 -5 0 -10
-5 -10 -11z"/>
<path d="M1485 1710 c4 -6 11 -8 16 -5 14 9 11 15 -7 15 -8 0 -12 -5 -9 -10z"/>
<path d="M3216 1604 c-4 -10 -13 -13 -25 -9 -13 4 -20 0 -24 -15 -4 -16 -12
-20 -34 -18 -24 3 -28 -1 -31 -24 -2 -16 1 -28 6 -28 16 0 64 28 73 42 7 10
11 10 21 0 6 -6 20 -12 30 -12 14 0 18 8 16 40 -1 41 -20 55 -32 24z"/>
<path d="M1256 1531 c-4 -5 -2 -12 3 -15 5 -4 12 -2 15 3 4 5 2 12 -3 15 -5 4
-12 2 -15 -3z"/>
<path d="M1291 1496 c-16 -19 -11 -29 8 -17 7 5 12 14 9 21 -3 9 -8 7 -17 -4z"/>
<path d="M2837 1504 c-14 -14 -7 -25 13 -22 12 2 21 8 21 13 0 12 -24 18 -34
9z"/>
<path d="M3655 1490 c-3 -5 -1 -10 4 -10 6 0 11 5 11 10 0 6 -2 10 -4 10 -3 0
-8 -4 -11 -10z"/>
<path d="M3217 1454 c-21 -14 -36 -28 -34 -30 7 -7 87 37 87 47 0 15 -13 11
-53 -17z"/>
<path d="M1347 1456 c-9 -7 -17 -16 -17 -20 0 -11 27 -6 39 8 16 19 0 27 -22
12z"/>
<path d="M3290 1415 c-7 -8 -20 -15 -29 -15 -21 0 -58 -26 -50 -34 4 -4 19 0
35 9 16 8 41 20 57 25 15 5 27 14 27 20 0 15 -26 12 -40 -5z"/>
<path d="M2988 1413 c7 -3 16 -2 19 1 4 3 -2 6 -13 5 -11 0 -14 -3 -6 -6z"/>
<path d="M3050 1411 c0 -6 5 -13 10 -16 6 -3 10 1 10 9 0 9 -4 16 -10 16 -5 0
-10 -4 -10 -9z"/>
<path d="M3000 1361 c0 -12 5 -21 10 -21 6 0 10 6 10 14 0 8 -4 18 -10 21 -5
3 -10 -3 -10 -14z"/>
<path d="M3025 1320 c-3 -5 -2 -10 4 -10 5 0 13 5 16 10 3 6 2 10 -4 10 -5 0
-13 -4 -16 -10z"/>
<path d="M1575 1299 c-8 -23 -1 -34 14 -24 13 8 15 45 2 45 -5 0 -13 -9 -16
-21z"/>
<path d="M3193 1073 c-13 -2 -23 -11 -23 -19 0 -18 39 -18 63 0 31 24 19 30
-40 19z"/>
</g>
</svg>
